PathFileType	4	(X/Y/Z)	0331.trc
DataRate	CameraRate	NumFrames	NumMarkers	Units	OrigDataRate	OrigDataStartFrame	OrigNumFrames
120	120	4	27	m	120	629	1006
Frame#	Time	RHip			RKnee			RAnkle			RBigToe			RSmallToe			RHeel			LHip			LKnee			LAnkle			LBigToe			LSmallToe			LHeel			Nose			REye			LEye			RShoulder			RElbow			RWrist			RThumb			RIndex			RPinky			LShoulder			LElbow			LWrist			LThumb			LIndex			LPinky		
		X	Y	Z	X	Y	Z	X	Y	Z	X	Y	Z	X	Y	Z	X	Y	Z	X	Y	Z	X	Y	Z	X	Y	Z	X	Y	Z	X	Y	Z	X	Y	Z	X	Y	Z	X	Y	Z	X	Y	Z	X	Y	Z	X	Y	Z	X	Y	Z	X	Y	Z	X	Y	Z	X	Y	Z	X	Y	Z	X	Y	Z	X	Y	Z	X	Y	Z	X	Y	Z	X	Y	Z
632	5.266666666666667	0.2706591080274513	1.0068734079868045	0.9022653829819468	0.2067878203592694	0.8422949512875209	0.5050571323766709	0.180385329405661	0.8954791578635549	0.1102052446176985	0.1584320231240681	0.7271426554178704	0.0385521413014304	0.1244540062267736	0.7670634058350312	0.0445996593802863	0.1896081184497549	0.9297809734404352	0.0543607508607583	0.4973612066524164	1.016798080162733	0.8886103712253797	0.5017037570469277	1.0899924461856638	0.4729103294266363	0.5153877623878972	1.228262443676935	0.085327085367156	0.5500825656096927	1.0447196724389312	0.01450614171125	0.5751165133590307	1.0903839785976253	0.0225029785801648	0.5050866953068308	1.269331860018872	0.0339751013261057	0.434595891367468	0.70378900923049	1.4688036983306096	0.4119718191610091	0.7011085824384198	1.5044575218341063	0.4654949549799642	0.701945272705812	1.502387985613833	0.2373224659416645	0.9335724268725876	1.3714415616479894	0.1242035763579165	0.9997012892214656	1.110184657205893	0.0666771107936174	0.9198873210367492	0.8855237390582771	0.0851976063706105	0.8878878215452557	0.8265786892524304	0.0530271740768001	0.8778139852963303	0.8040054299215742	0.0420596653766718	0.930896814231183	0.7928596194594694	0.632172553801972	0.929269610951718	1.3473541924068615	0.6633279310316551	0.9655197793585428	1.0565017432639685	0.6606912466628141	0.9219817644623516	0.8042380072257264	0.617512529738164	0.8965229350012398	0.7380869222193085	0.6464406206930204	0.8971897170989762	0.7053318569021518	0.6570440416754396	0.9370391512731904	0.6991619287666156
633	5.275	0.2725372562043047	1.0126626782688783	0.9036423204558716	0.2082045648704684	0.8546287493617009	0.5039925776079053	0.1847524463625922	0.9154641442766228	0.1116293849370101	0.1620922291181873	0.7496484116495256	0.0361863327444577	0.1282666391681282	0.7892793061747951	0.0431502988784481	0.1945468982498287	0.9505797751997056	0.0566363034929257	0.4993726589910189	1.0222273176793844	0.8900088417058153	0.5029802919127637	1.0923620388499138	0.4741531021638994	0.5160762914870083	1.2285616220150932	0.0852022677696022	0.5503278455603379	1.0451449043693395	0.0142856190303557	0.5756453244765034	1.0906419501732554	0.0221439435532334	0.505524348227825	1.2696362540182853	0.0339956380812357	0.4352205653643838	0.7084118965732453	1.4700618626945374	0.4125958798686321	0.7058982549770692	1.5058038347293354	0.4662979612255043	0.7065277282604057	1.503583062803732	0.2390203360755137	0.9380659025397134	1.3728904386815666	0.1251985011264085	1.0037104924118028	1.111297289671598	0.0687824951178993	0.9196842881104714	0.8877869727852925	0.0863716868619724	0.88795840073541	0.8297411220883094	0.0554563181396562	0.875836730685043	0.8070008655234935	0.0442115621459925	0.9301939026485662	0.7950242887792245	0.6339877333599826	0.9343373294274712	1.3491693716353383	0.6647603358942286	0.9716898945101576	1.0585934014588916	0.6619460134315298	0.9288539696280892	0.8064364882889707	0.6183215093377057	0.9034500857478192	0.7404970757973022	0.6469036531940713	0.9041633926118934	0.7078789045098919	0.6576529191319378	0.9436262812629862	0.701548488016497
634	5.283333333333333	0.2744892577754579	1.0181969637275163	0.9047968315421528	0.2096457779281187	0.8666620292539686	0.5028470961806988	0.1888740478538611	0.9351608928586967	0.1131074909786231	0.1656580208545285	0.7719003654254435	0.0339369541784425	0.1320795511868408	0.8111415569372413	0.0418368121402203	0.199090142996275	0.9712604734178532	0.0589763710699506	0.5013235568987894	1.0274223436102938	0.8911733083899155	0.5042200745285712	1.0946517137149627	0.4754445933588532	0.516703667898806	1.228907929029585	0.0851066345861946	0.550520704607315	1.0456290854013326	0.0141535346196892	0.5760869402356992	1.0909378922288036	0.0218952374759318	0.5058559848100315	1.2699264979204408	0.0340815962927657	0.435645669461284	0.7129779571448728	1.4712398076122697	0.4129955946900881	0.7105885548214047	1.5070578796832266	0.4668363756565389	0.7109550135009552	1.5047115098294874	0.2405461455003249	0.942549198649238	1.3741482502738365	0.1262101499021962	1.0075345725128748	1.1122109067943378	0.0709536293462526	0.9194366068034412	0.8898069296507772	0.0875786069921696	0.8879504544791464	0.8325692405374403	0.0580474819627003	0.8738347533993418	0.8095871933641011	0.0464026324520075	0.929533235635882	0.7968113262288847	0.6356541555879013	0.9393289458059796	1.3508794447603027	0.6660945652837851	0.9777093907981984	1.0606098990787158	0.6632825549517632	0.9355344434993308	0.808638863084075	0.6191930730112031	0.9098637777359916	0.742886188638214	0.6475181224314571	0.9107247271396692	0.7103102657672478	0.658444588323756	0.9501044453308636	0.7039715146675014
635	5.291666666666667	0.2765212682377039	1.0234859412642927	0.9057471002082804	0.2111607520250634	0.8783181501810393	0.5016488000833569	0.1927633731810679	0.9545706642511848	0.1146463267850262	0.1691525504030331	0.7938377522537117	0.0318263608258504	0.135909164111656	0.8326153261954126	0.0406607074330376	0.2032177222743134	0.9918722774569066	0.0613737045816069	0.5032046404659586	1.0323767337198595	0.8921192274170232	0.505384350695447	1.096843132894602	0.4767774974813429	0.5172677997144686	1.2292882202408508	0.0850573252700278	0.5506450420154614	1.0461588744578372	0.0141214772567984	0.5764068417979104	1.0912631012046825	0.0217585401293959	0.5060957583778528	1.2701958112930476	0.0342322694294365	0.4358924854623479	0.7175007096534621	1.4723515122808049	0.4131865214845103	0.7151855401206102	1.5082333775875514	0.4671209388410099	0.715231092034436	1.5057879869478277	0.2419041584554158	0.9470022242515568	1.3752196574813045	0.1272325386359877	1.0111743718053388	1.112938960053339	0.0731576252368734	0.9191640389734927	0.8915819927154848	0.0888832043551754	0.8878004436594562	0.8350058197858841	0.0607663984521069	0.8718705230000081	0.8117605254765133	0.0486156722942525	0.9289957380016716	0.7982277003440933	0.6371647376071965	0.9442320722411934	1.352486539945489	0.6673328006880473	0.9835575275953264	1.0625591825605551	0.6646733885927177	0.9420080914955804	0.8107994974702531	0.6201264917197269	0.9158076955187896	0.7452082039942527	0.648282508487916	0.9169005081754408	0.7125939066356471	0.6594177352018837	0.9564948558391156	0.706385460827636
